<?xml version="1.0" encoding="UTF-8"?>
<svg viewBox="0 0 128 128" xmlns="http://www.w3.org/2000/svg">
 <path d="m60.688 9.7188c-3.0779 0-5.5625 2.4846-5.5625 5.5625v39.906c0 3.0779 2.4846 5.5625 5.5625 5.5625h5.9688c3.0779 0 5.5313-2.4846 5.5313-5.5625v-39.906c0-3.0779-2.4534-5.5625-5.5313-5.5625h-5.9688zm16.188 17.094v16.438c10.788 4.9078 18.281 15.781 18.281 28.406 0 17.221-13.935 31.156-31.156 31.156s-31.219-13.935-31.219-31.156c0-12.251 7.0922-22.835 17.375-27.938v-16.656c-19.022 5.8914-32.812 23.638-32.812 44.594 0 25.767 20.89 46.625 46.656 46.625s46.656-20.858 46.656-46.625c0-21.299-14.278-39.252-33.781-44.844" fill="#4d4d4d"/>
</svg>
